<svg width="412" height="87" viewBox="0 0 412 87" fill="none" xmlns="http://www.w3.org/2000/svg">
<g clip-path="url(#clip0_690_22846)">
<g clip-path="url(#clip1_690_22846)">
<path d="M8.3 33.1998C7.7 33.1998 7.5 32.8998 7.5 32.1998V1.2998C7.5 0.599805 7.7 0.299805 8.3 0.299805H16.7C24.8 0.299805 27.4 3.3998 27.4 7.2998V10.2998C27.4 12.7998 26.3 14.6998 23.4 15.7998C27 16.7998 28.7 18.8998 28.7 21.6998V25.7998C28.7 29.7998 26.1 32.9998 18 32.9998H8.3V33.1998ZM12 4.2998V14.4998H17C20.9 14.4998 22.8 12.9998 22.8 10.2998V8.0998C22.8 5.3998 20.9 4.2998 16.7 4.2998H12ZM12 18.1998V29.2998H18C22.2 29.2998 24.1 27.7998 24.1 25.1998V22.2998C24.1 19.8998 22.2 18.2998 18 18.2998H12V18.1998Z" fill="white"/>
<path d="M40.5 29.1998H52.6C53.2 29.1998 53.5 29.3998 53.5 30.0998V32.2998C53.5 32.9998 53.2 33.1998 52.6 33.1998H36.6C36.1 33.1998 35.8 32.8998 35.8 32.1998V1.2998C35.8 0.599805 36 0.299805 36.7 0.299805H39.6C40.2 0.299805 40.5 0.599805 40.5 1.2998V29.1998Z" fill="white"/>
<path d="M63.1 25.3998C63.1 27.9998 65 29.5998 69.2 29.5998C73.4 29.5998 75.4 27.9998 75.4 25.3998V1.3998C75.4 0.699805 75.6 0.399805 76.2 0.399805H79.1C79.8 0.399805 79.9 0.699805 79.9 1.3998V26.1998C79.9 30.1998 77.3 33.5998 69.1 33.5998C61 33.5998 58.4 30.0998 58.4 26.1998V1.2998C58.4 0.599805 58.7 0.299805 59.3 0.299805H62.2C62.8 0.299805 63.1 0.599805 63.1 1.2998V25.3998Z" fill="white"/>
<path d="M89.5 33.1998C88.9 33.1998 88.6 32.8998 88.6 32.1998V1.2998C88.6 0.599805 88.8 0.299805 89.5 0.299805H105.6C106.2 0.299805 106.5 0.499805 106.5 1.1998V3.3998C106.5 4.0998 106.2 4.2998 105.6 4.2998H93.2V13.9998H104.8C105.5 13.9998 105.7 14.1998 105.7 14.8998V16.9998C105.7 17.5998 105.4 17.8998 104.8 17.8998H93.2V28.9998H106.1C106.7 28.9998 107 29.1998 107 29.8998V32.0998C107 32.7998 106.7 32.9998 106.1 32.9998H89.5V33.1998Z" fill="white"/>
<path d="M130.3 8.1C130.3 5.5 128.7 4 124.6 4C120.4 4 118.9 5.5 118.9 8.1V9.1C118.9 11.3 120.3 11.9 121.3 12.3L129.9 15.6C132.7 16.7 135.1 18.6 135.1 22.2V26.2C135.1 30.2 132.4 33.6 124.5 33.6C116.6 33.6 113.9 30.1 113.9 26.2V23.4C113.9 22.7 114.2 22.4 114.8 22.4H117.6C118.2 22.4 118.5 22.7 118.5 23.4V25.6C118.5 28.2 120.3 29.7 124.5 29.7C128.7 29.7 130.6 28.2 130.6 25.6V23.3C130.6 20.9 128.5 20.1 126.6 19.3L118.6 16.2C116.5 15.4 114.4 13.2 114.4 10.2V7.4C114.4 3.4 116.9 0 124.6 0C132.3 0 134.8 3.5 134.8 7.4V9.5C134.8 10.1 134.6 10.4 133.9 10.4H131.1C130.4 10.4 130.2 10.1 130.2 9.5V8.1H130.3Z" fill="white"/>
<path d="M163.5 26.1C163.5 29.3 161.7 32.2 156.7 33.2L162.5 38.5C163 38.9 163 39.4 162.6 39.8L161.1 41.4C160.8 41.8 160.3 41.8 159.9 41.4L151.4 33.4C144.3 33.1 142 29.8 142 26V7.4C142 3.4 144.6 0 152.7 0C160.8 0 163.5 3.5 163.5 7.4V26.1ZM146.7 25.5C146.7 28.2 148.6 29.7 152.8 29.7C157 29.7 158.9 28.2 158.9 25.5V8.1C158.9 5.4 157 3.9 152.8 3.9C148.6 3.9 146.7 5.4 146.7 8.1V25.5Z" fill="white"/>
<path d="M176 25.3998C176 27.9998 177.9 29.5998 182.1 29.5998C186.4 29.5998 188.3 27.9998 188.3 25.3998V1.3998C188.3 0.699805 188.5 0.399805 189.1 0.399805H192C192.7 0.399805 192.9 0.699805 192.9 1.3998V26.1998C192.9 30.1998 190.3 33.5998 182.1 33.5998C174 33.5998 171.4 30.0998 171.4 26.1998V1.2998C171.4 0.599805 171.7 0.299805 172.3 0.299805H175.2C175.8 0.299805 176 0.599805 176 1.2998V25.3998Z" fill="white"/>
<path d="M211.5 0.400391C212.1 0.400391 212.4 0.700391 212.6 1.30039L221.8 32.3004C222 32.9004 221.8 33.2004 221.1 33.2004H218.1C217.5 33.2004 217.2 32.9004 217.1 32.3004L214.9 24.8004H204.9L202.7 32.3004C202.6 32.9004 202.3 33.2004 201.7 33.2004H199C198.4 33.2004 198.1 32.9004 198.3 32.3004L207.5 1.30039C207.7 0.700391 208 0.400391 208.6 0.400391H211.5ZM211.3 12.3004C210.7 10.5004 210.1 5.80039 210 5.30039C209.9 5.70039 209.3 10.2004 208.7 12.2004L206 21.0004H213.9L211.3 12.3004Z" fill="white"/>
<path d="M232.2 20.1998V32.1998C232.2 32.8998 232 33.1998 231.4 33.1998H228.5C227.9 33.1998 227.6 32.8998 227.6 32.1998V1.2998C227.6 0.599805 227.8 0.299805 228.5 0.299805H238.1C246.2 0.299805 248.8 3.7998 248.8 7.6998V12.6998C248.8 15.5998 247.3 18.2998 243.3 19.4998L249 32.0998C249.2 32.6998 248.8 33.0998 248.2 33.0998H245.4C244.7 33.0998 244.6 32.6998 244.4 32.0998L239.1 20.0998H238H232.2V20.1998ZM232.2 4.3998V16.1998H238.1C242.3 16.1998 244.2 14.6998 244.2 11.9998V8.5998C244.2 5.9998 242.3 4.3998 238.1 4.3998H232.2Z" fill="white"/>
<path d="M256.5 33.1998C255.9 33.1998 255.7 32.8998 255.7 32.1998V1.2998C255.7 0.599805 255.9 0.299805 256.5 0.299805H272.6C273.2 0.299805 273.5 0.499805 273.5 1.1998V3.3998C273.5 4.0998 273.2 4.2998 272.6 4.2998H260.2V13.9998H271.8C272.5 13.9998 272.7 14.1998 272.7 14.8998V16.9998C272.7 17.5998 272.4 17.8998 271.8 17.8998H260.2V28.9998H273.1C273.7 28.9998 274 29.1998 274 29.8998V32.0998C274 32.7998 273.7 32.9998 273.1 32.9998H256.5V33.1998Z" fill="white"/>
<path d="M9.5 53.6996C9.5 52.3996 9.4 51.6996 8.7 50.7996C8.2 50.1996 8.5 49.6996 9.1 49.6996H15.8V54.9996C15.8 60.1996 20.8 63.1996 25.3 64.7996L23.6 67.9996C23.1 68.9996 21.2 68.5996 17.9 66.4996C16 65.2996 14.2 63.6996 13 62.0996C11.6 64.1996 9.8 65.8996 7.7 67.2996C5.3 68.8996 2.3 70.3996 1.8 69.3996L0 65.8996C5.2 63.7996 9.5 60.3996 9.5 55.3996V53.6996ZM35 81.3996V85.8996H12.9C8.2 85.8996 6.3 84.6996 6.3 80.6996V74.9996C6.3 74.1996 6 73.5996 5.5 72.8996C5 72.2996 5.3 71.6996 5.9 71.6996H12.5V79.7996C12.5 80.9996 12.9 81.3996 14.1 81.3996H35ZM28.3 73.6996V53.0996C28.3 51.6996 28.1 50.9996 27.3 50.1996C26.8 49.5996 27.1 49.0996 27.7 49.0996H34.3V73.6996H28.3Z" fill="white"/>
<path d="M47.9 52C47.9 50.6 47.8 50 47.1 49.1C46.6 48.5 46.9 48 47.5 48H54.1V52.4H62.9V56.8H58.8C60 58.2 60.7 59.9 60.7 61.9C60.7 66.9 57.1 70.7 50.7 70.7C44.3 70.7 40.7 66.9 40.7 61.9C40.7 59.8 41.4 58.1 42.6 56.8H38.5V52.4H47.9V52ZM72.6 81.4V85.9H50.8C46.1 85.9 44.2 84.7 44.2 80.7V76.5C44.2 75.7 43.9 75.1 43.4 74.4C42.9 73.8 43.2 73.3 43.8 73.3H50.4V79.8C50.4 81 50.8 81.4 52 81.4H72.6ZM54.9 61.7C54.9 59 53.4 56.9 50.7 56.9C48 56.9 46.5 59 46.5 61.7C46.5 64.2 48 66.3 50.7 66.3C53.4 66.3 54.9 64.2 54.9 61.7ZM66 74.3V53.1C66 51.7 65.8 51.1 65.1 50.2C64.6 49.6 64.9 49.1 65.5 49.1H72.1V58.4H76.5V62.9H72.1V74.3H66Z" fill="white"/>
<path d="M98.2 57.7002C98.2 65.5002 95.8 71.4002 90.8 76.5002C85.3 82.0002 82.7 82.3002 82 81.5002L79.5 78.3002C85 75.0002 89.1 71.1002 90.9 65.9002H78.5V61.5002H91.9C92.1 60.1002 92.1 58.6002 92.1 57.0002V55.0002H79.4V50.6002H97.3C97.9 50.6002 98.2 50.9002 98.2 51.5002V57.7002ZM103.9 86.3002V53.2002C103.9 51.8002 103.7 51.2002 103 50.3002C102.5 49.7002 102.8 49.2002 103.4 49.2002H110V62.0002H115V66.6002H110V86.4002H103.9V86.3002Z" fill="white"/>
<path d="M153.4 78.3998V82.8998H116.5V78.3998H153.4ZM148.8 50.8998V55.2998H126.7V64.3998C126.7 65.7998 127.2 66.8998 129 66.8998H149V71.2998H127.7C123.1 71.2998 120.5 69.6998 120.5 65.6998V54.8998C120.5 53.4998 120.3 52.8998 119.6 51.9998C119.1 51.3998 119.4 50.7998 119.9 50.7998H148.8V50.8998Z" fill="white"/>
<path d="M161.7 55.0998H158V50.8998H170.7C170.7 49.5998 170.6 49.1998 169.9 48.3998C169.4 47.7998 169.7 47.2998 170.3 47.2998H176.8V50.8998H189.4V55.0998H185.8C186.4 55.7998 186.7 56.5998 186.7 57.5998C186.7 61.4998 183.1 63.5998 176.9 64.0998V66.1998H192.2V69.9998H155.3V66.0998H170.6V63.9998C164.4 63.4998 160.8 61.3998 160.8 57.4998C160.7 56.5998 161.1 55.7998 161.7 55.0998ZM181.6 77.1998V75.5998H159.5V71.7998H186.9C187.5 71.7998 187.8 71.9998 187.8 72.6998V80.8998H165.9V81.8998C165.9 82.4998 166.1 82.6998 166.6 82.6998H188.3V86.4998H163.3C160.6 86.4998 159.6 85.3998 159.6 82.9998V81.2998C159.6 79.9998 159.3 79.2998 158.6 78.3998C158.1 77.7998 158.4 77.2998 159 77.2998H181.6V77.1998ZM173.7 55.1998C169.3 55.1998 166.6 55.7998 166.6 57.4998C166.6 59.1998 169.4 59.9998 173.7 59.9998C178.1 59.9998 180.8 59.1998 180.8 57.4998C180.8 55.7998 178.1 55.1998 173.7 55.1998Z" fill="white"/>
</g>
</g>
<defs>
<clipPath id="clip0_690_22846">
<rect width="412" height="86.5" fill="white"/>
</clipPath>
<clipPath id="clip1_690_22846">
<rect width="274.1" height="86.5" fill="white"/>
</clipPath>
</defs>
</svg>
