<svg width="412" height="125" viewBox="0 0 412 125" fill="none" xmlns="http://www.w3.org/2000/svg">
<g clip-path="url(#clip0_690_22730)">
<g clip-path="url(#clip1_690_22730)">
<path d="M286.7 5.2998H283.9V57.6998H286.7V5.2998Z" fill="#38383A"/>
<path d="M31 123.5V96V94.6L30.7 94.5L22.4 117.4H15.5L7.19999 94.7H6.89999L6.79999 96.1V123.5H0.299988V86.5H9.99999L18.9 110.3L27.8 86.5H37.5V123.5H31Z" fill="black"/>
<path d="M127 96.4H117.2V88H111.2V96.4H105.6V101.9H111.2V114.5C111.2 120.9 113.7 124.7 120.8 124.7C123.4 124.7 126.4 123.9 128.3 122.6L126.6 117.5C124.8 118.5 122.9 119.1 121.3 119.1C118.3 119.1 117.3 117.3 117.3 114.5V102.1H127.1V96.4H127Z" fill="black"/>
<path d="M178.1 95.7002C174.6 95.7002 172.4 97.3002 170.8 99.7002V96.4002H164.9V123.9H170.9V108.5C170.9 103.9 172.9 101.4 176.8 101.4C178 101.4 179.3 101.6 180.5 102.1L182.3 96.5002C181 95.9002 179.3 95.7002 178.1 95.7002Z" fill="black"/>
<path d="M100.8 98.4996C97.9 96.5996 93.9 95.5996 89.6 95.5996C82.6 95.5996 78.1 98.8996 78.1 104.4C78.1 108.9 81.4 111.7 87.6 112.5L90.4 112.9C93.7 113.4 95.2 114.2 95.2 115.8C95.2 117.9 93 119.1 88.9 119.1C84.8 119.1 81.8 117.8 79.7 116.2L76.9 120.9C80.2 123.3 84.3 124.5 88.8 124.5C96.8 124.5 101.4 120.8 101.4 115.5C101.4 110.7 97.8 108.1 91.8 107.3L89 106.9C86.4 106.6 84.3 106 84.3 104.2C84.3 102.2 86.3 101 89.5 101C93 101 96.4 102.3 98.1 103.4L100.8 98.4996Z" fill="black"/>
<path d="M261.4 95.7002C257.9 95.7002 255.7 97.3002 254.1 99.7002V96.4002H248.2V123.9H254.2V108.5C254.2 103.9 256.2 101.4 260.1 101.4C261.3 101.4 262.6 101.6 263.8 102.1L265.6 96.5002C264.3 95.9002 262.6 95.7002 261.4 95.7002Z" fill="black"/>
<path d="M184.2 110.1C184.2 118.5 190 124.6 198.9 124.6C203 124.6 205.8 123.7 208.8 121.3L205.9 116.5C203.7 118.1 201.3 119 198.7 119C193.9 118.9 190.4 115.5 190.4 110.2C190.4 104.9 193.9 101.4 198.7 101.4C201.3 101.4 203.7 102.3 205.9 103.9L208.8 99.1C205.8 96.7 203 95.8 198.9 95.8C190 95.7 184.2 101.8 184.2 110.1Z" fill="black"/>
<path d="M234.3 96.4002V99.7002C232.4 97.2002 229.5 95.7002 225.6 95.7002C217.9 95.7002 211.8 101.7 211.8 110.2C211.8 118.6 217.8 124.7 225.6 124.7C229.5 124.7 232.4 123.1 234.3 120.7V124H240.3V110.2V96.4002H234.3ZM226.3 118.9C221.1 118.9 217.9 114.9 217.9 110.1C217.9 105.3 221.1 101.3 226.3 101.3C231.3 101.3 234.6 105.1 234.6 110.1C234.6 115.1 231.3 118.9 226.3 118.9Z" fill="black"/>
<path d="M158.7 110.1C158.6 101.5 153.3 95.5996 145.6 95.5996C137.5 95.5996 131.9 101.5 131.9 110.1C131.9 118.9 137.8 124.6 146 124.6C150.1 124.6 154 123.6 157.3 120.7L154.4 116.3C152.1 118.1 149.2 119.2 146.4 119.2C142.5 119.2 139 117.4 138.2 112.5H158.7C158.7 111.7 158.7 110.9 158.7 110.1ZM138.2 107.7C138.8 103.7 141.3 101 145.5 101C149.4 101 151.8 103.4 152.5 107.7H138.2Z" fill="black"/>
<path d="M289.9 85.2998V99.6998C288 97.1998 285.1 95.6998 281.2 95.6998C273.5 95.6998 267.4 101.7 267.4 110.2C267.4 118.6 273.4 124.7 281.2 124.7C285.1 124.7 288 123.1 289.9 120.7V124H295.9V110.2V85.2998H289.9ZM281.9 118.9C276.7 118.9 273.5 114.9 273.5 110.1C273.5 105.3 276.7 101.3 281.9 101.3C286.9 101.3 290.2 105.1 290.2 110.1C290.2 115.1 286.9 118.9 281.9 118.9Z" fill="black"/>
<path d="M65.2 96.4002V99.7002C63.3 97.2002 60.4 95.7002 56.5 95.7002C48.8 95.7002 42.7 101.7 42.7 110.2C42.7 118.6 48.7 124.7 56.5 124.7C60.4 124.7 63.3 123.1 65.2 120.7V124H71.2V110.2V96.4002H65.2ZM57.3 118.9C52.1 118.9 48.9 114.9 48.9 110.1C48.9 105.3 52.1 101.3 57.3 101.3C62.3 101.3 65.6 105.1 65.6 110.1C65.6 115.1 62.2 118.9 57.3 118.9Z" fill="black"/>
<path d="M372.1 96.4002V99.7002C370.2 97.2002 367.3 95.7002 363.4 95.7002C355.7 95.7002 349.6 101.7 349.6 110.2C349.6 118.6 355.6 124.7 363.4 124.7C367.3 124.7 370.2 123.1 372.1 120.7V124H378.1V110.2V96.4002H372.1ZM364.1 118.9C358.9 118.9 355.7 114.9 355.7 110.1C355.7 105.3 358.9 101.3 364.1 101.3C369.1 101.3 372.4 105.1 372.4 110.1C372.4 115.1 369.1 118.9 364.1 118.9Z" fill="black"/>
<path d="M384.7 124.2V85.2998H390.7V124.2H384.7Z" fill="black"/>
<path d="M397.3 124.2V85.2998H403.3V124.2H397.3Z" fill="black"/>
<path d="M338.4 123.4V107.5H323.8V123.4H317.5V85.5996H323.8V101.7H338.4V85.5996H344.7V123.4H338.4Z" fill="black"/>
<path d="M0.9 45.5002C0.3 45.5002 0 45.2002 0 44.6002V14.2002C0 13.5002 0.2 13.2002 0.9 13.2002H9.3C17.5 13.2002 20.1 16.2002 20.1 20.1002V23.1002C20.1 25.6002 19 27.5002 16.1 28.6002C19.7 29.6002 21.5 31.6002 21.5 34.4002V38.4002C21.5 42.3002 18.9 45.5002 10.7 45.5002H0.9ZM4.6 17.1002V27.2002H9.6C13.5 27.2002 15.4 25.7002 15.4 23.1002V20.9002C15.4 18.3002 13.5 17.2002 9.2 17.2002H4.6V17.1002ZM4.6 30.8002V41.7002H10.6C14.9 41.7002 16.8 40.2002 16.8 37.6002V34.7002C16.8 32.3002 14.9 30.8002 10.6 30.8002H4.6Z" fill="#00A0E9"/>
<path d="M33.2 41.6002H45.3C45.9 41.6002 46.2 41.8002 46.2 42.5002V44.7002C46.2 45.4002 45.9 45.6002 45.3 45.6002H29.3C28.8 45.6002 28.5 45.3002 28.5 44.7002V14.2002C28.5 13.5002 28.7 13.2002 29.4 13.2002H32.3C32.9 13.2002 33.2 13.5002 33.2 14.2002V41.6002Z" fill="#00A0E9"/>
<path d="M55.9 37.8002C55.9 40.4002 57.8 41.9002 62 41.9002C66.3 41.9002 68.2 40.3002 68.2 37.8002V14.2002C68.2 13.5002 68.4 13.2002 69.1 13.2002H72C72.7 13.2002 72.9 13.5002 72.9 14.2002V38.6002C72.9 42.5002 70.2 45.9002 62.1 45.9002C54 45.9002 51.3 42.5002 51.3 38.6002V14.2002C51.3 13.5002 51.6 13.2002 52.2 13.2002H55.1C55.7 13.2002 56 13.5002 56 14.2002V37.8002H55.9Z" fill="#00A0E9"/>
<path d="M82.4 45.5002C81.8 45.5002 81.5 45.2002 81.5 44.6002V14.2002C81.5 13.5002 81.7 13.2002 82.4 13.2002H98.6C99.2 13.2002 99.5 13.4002 99.5 14.1002V16.2002C99.5 16.9002 99.2 17.1002 98.6 17.1002H86.2V26.7002H97.8C98.5 26.7002 98.7 26.9002 98.7 27.6002V29.6002C98.7 30.2002 98.4 30.5002 97.8 30.5002H86.2V41.5002H99.2C99.8 41.5002 100.1 41.7002 100.1 42.4002V44.6002C100.1 45.3002 99.8 45.5002 99.2 45.5002H82.4Z" fill="#00A0E9"/>
<path d="M123.4 20.8004C123.4 18.2004 121.8 16.8004 117.7 16.8004C113.5 16.8004 112 18.3004 112 20.8004V21.7004C112 23.9004 113.4 24.5004 114.4 24.9004L123 28.2004C125.8 29.3004 128.2 31.1004 128.2 34.7004V38.6004C128.2 42.5004 125.5 45.9004 117.6 45.9004C109.7 45.9004 106.9 42.5004 106.9 38.6004V35.8004C106.9 35.1004 107.2 34.9004 107.8 34.9004H110.6C111.2 34.9004 111.5 35.2004 111.5 35.8004V38.0004C111.5 40.6004 113.3 42.0004 117.6 42.0004C121.9 42.0004 123.7 40.5004 123.7 38.0004V35.8004C123.7 33.4004 121.6 32.6004 119.7 31.9004L111.7 28.8004C109.6 28.0004 107.5 25.9004 107.5 22.9004V20.2004C107.5 16.3004 110 12.9004 117.7 12.9004C125.4 12.9004 128 16.3004 128 20.2004V22.3004C128 22.9004 127.8 23.2004 127.1 23.2004H124.3C123.6 23.2004 123.4 22.9004 123.4 22.3004V20.8004Z" fill="#38383A"/>
<path d="M156.8 38.6004C156.8 41.8004 155 44.6004 149.9 45.6004L155.7 50.8004C156.2 51.2004 156.2 51.7004 155.8 52.1004L154.3 53.7004C154 54.1004 153.5 54.1004 153.1 53.7004L144.6 45.8004C137.5 45.5004 135.2 42.2004 135.2 38.5004V20.2004C135.2 16.3004 137.9 12.9004 146 12.9004C154.2 12.9004 156.8 16.3004 156.8 20.2004V38.6004ZM139.9 37.9004C139.9 40.5004 141.8 42.0004 146 42.0004C150.3 42.0004 152.2 40.5004 152.2 37.9004V20.8004C152.2 18.2004 150.3 16.7004 146 16.7004C141.8 16.7004 139.9 18.2004 139.9 20.8004V37.9004Z" fill="#38383A"/>
<path d="M169.4 37.8002C169.4 40.4002 171.3 41.9002 175.5 41.9002C179.8 41.9002 181.7 40.3002 181.7 37.8002V14.2002C181.7 13.5002 181.9 13.2002 182.6 13.2002H185.5C186.2 13.2002 186.4 13.5002 186.4 14.2002V38.6002C186.4 42.5002 183.7 45.9002 175.6 45.9002C167.5 45.9002 164.8 42.5002 164.8 38.6002V14.2002C164.8 13.5002 165.1 13.2002 165.7 13.2002H168.6C169.2 13.2002 169.5 13.5002 169.5 14.2002V37.8002H169.4Z" fill="#38383A"/>
<path d="M205.1 13.3008C205.7 13.3008 206 13.6008 206.2 14.2008L215.4 44.7008C215.6 45.3008 215.4 45.6008 214.7 45.6008H211.7C211.1 45.6008 210.8 45.3008 210.7 44.7008L208.5 37.4008H198.5L196.3 44.7008C196.2 45.3008 195.9 45.6008 195.3 45.6008H192.5C191.9 45.6008 191.6 45.3008 191.8 44.7008L201 14.2008C201.2 13.6008 201.5 13.3008 202.1 13.3008H205.1ZM204.8 24.9008C204.2 23.1008 203.6 18.5008 203.5 18.0008C203.4 18.4008 202.8 22.8008 202.2 24.8008L199.5 33.5008H207.5L204.8 24.9008Z" fill="#38383A"/>
<path d="M225.8 32.8002V44.6002C225.8 45.3002 225.6 45.5002 224.9 45.5002H222C221.4 45.5002 221.1 45.2002 221.1 44.6002V14.2002C221.1 13.5002 221.3 13.2002 222 13.2002H231.6C239.8 13.2002 242.4 16.6002 242.4 20.5002V25.4002C242.4 28.3002 240.9 30.9002 236.9 32.0002L242.6 44.4002C242.8 45.0002 242.4 45.3002 241.7 45.3002H238.9C238.2 45.3002 238.1 44.9002 237.9 44.4002L232.5 32.6002H231.7H225.8V32.8002ZM225.8 17.2002V28.8002H231.7C236 28.8002 237.9 27.3002 237.9 24.7002V21.3002C237.9 18.7002 236 17.2002 231.7 17.2002H225.8Z" fill="#38383A"/>
<path d="M250.2 45.5002C249.6 45.5002 249.3 45.2002 249.3 44.6002V14.2002C249.3 13.5002 249.5 13.2002 250.2 13.2002H266.4C267 13.2002 267.3 13.4002 267.3 14.1002V16.2002C267.3 16.9002 267 17.1002 266.4 17.1002H254V26.7002H265.6C266.3 26.7002 266.5 26.9002 266.5 27.6002V29.6002C266.5 30.2002 266.2 30.5002 265.6 30.5002H254V41.5002H267C267.6 41.5002 267.9 41.7002 267.9 42.4002V44.6002C267.9 45.3002 267.6 45.5002 267 45.5002H250.2Z" fill="#38383A"/>
<path d="M405.2 55.8998V52.4998H406.6V51.7998H403V52.4998H404.4V55.8998H405.2ZM412 55.8998V51.7998H410.9L409.7 54.5998L408.5 51.7998H407.4V55.8998H408.2V52.7998L409.4 55.4998H410.2L411.4 52.7998V55.8998H412Z" fill="black"/>
<path d="M369.1 6.5H342.5V54.3H369.1V6.5Z" fill="#EB6100"/>
<path d="M344.2 30.4C344.2 20.7 348.7 12.1 355.8 6.5C350.7 2.4 344.1 0 337 0C320.2 0 306.6 13.6 306.6 30.4C306.6 47.2 320.2 60.8 337 60.8C344.1 60.8 350.6 58.4 355.8 54.3C348.8 48.8 344.2 40.1 344.2 30.4Z" fill="#E20014"/>
<path d="M405.1 30.4C405.1 47.2 391.5 60.8 374.7 60.8C367.6 60.8 361.1 58.4 355.9 54.3C363 48.7 367.5 40.1 367.5 30.4C367.5 20.7 363 12.1 355.9 6.5C361 2.4 367.5 0 374.6 0C391.4 0 405.1 13.6 405.1 30.4Z" fill="#F5A400"/>
</g>
</g>
<defs>
<clipPath id="clip0_690_22730">
<rect width="412" height="124.6" fill="white"/>
</clipPath>
<clipPath id="clip1_690_22730">
<rect width="412" height="124.6" fill="white"/>
</clipPath>
</defs>
</svg>
