<svg width="1075" height="160" viewBox="0 0 1075 160" fill="none" xmlns="http://www.w3.org/2000/svg">
<g clip-path="url(#clip0_682_22640)">
<path d="M683.1 73.8V103.7C683.1 105.8 683.6 107.3 684.6 108.2C685.6 109.1 687.3 109.6 689.7 109.6H696.9V122.7H687.1C673.9 122.7 667.4 116.3 667.4 103.5V73.8H660V61H667.4V45.7H683.1V61H696.9V73.8H683.1Z" fill="#1769FF"/>
<path d="M755.3 63.1C758.9 65.1 761.8 68.2 763.8 72.1C765.8 76.1 766.9 80.8 766.9 86.4V122.6H751.3V88.6C751.3 83.7 750.1 79.9 747.6 77.3C745.1 74.7 741.8 73.3 737.6 73.3C733.3 73.3 729.9 74.6 727.4 77.3C724.9 79.9 723.7 83.7 723.7 88.6V122.7H708V40.2H723.6V68.6C725.6 65.9 728.3 63.8 731.6 62.3C734.9 60.8 738.7 60 742.7 60C747.5 60.1 751.6 61.1 755.3 63.1Z" fill="#1769FF"/>
<path d="M838.5 96.5H793.4C793.8 101 795.3 104.5 798.1 107C800.8 109.5 804.2 110.8 808.2 110.8C814 110.8 818.1 108.3 820.6 103.3H837.4C835.6 109.2 832.2 114.1 827.1 118C822 121.8 815.8 123.7 808.5 123.7C802.6 123.7 797.2 122.4 792.5 119.7C787.8 117.1 784.1 113.3 781.5 108.5C778.9 103.7 777.5 98.1 777.5 91.8C777.5 85.4 778.8 79.8 781.4 75C784 70.2 787.6 66.5 792.3 63.9C797 61.3 802.4 60 808.5 60C814.4 60 819.6 61.3 824.3 63.8C828.9 66.3 832.5 69.9 835.1 74.6C837.7 79.2 838.9 84.6 838.9 90.6C839 92.7 838.8 94.7 838.5 96.5ZM822.8 86C822.7 82 821.3 78.8 818.5 76.4C815.7 74 812.2 72.8 808.1 72.8C804.2 72.8 801 74 798.3 76.3C795.7 78.6 794 81.9 793.5 86.1H822.8V86Z" fill="#1769FF"/>
<path d="M852.2 75C854.7 70.2 858.1 66.5 862.3 63.9C866.6 61.3 871.3 60 876.6 60C881.2 60 885.2 60.9 888.7 62.8C892.2 64.7 894.9 67 897 69.8V61H912.7V122.7H897V113.7C895 116.6 892.2 119 888.7 120.9C885.2 122.8 881.1 123.7 876.5 123.7C871.3 123.7 866.6 122.4 862.3 119.7C858 117 854.6 113.3 852.2 108.4C849.7 103.5 848.5 97.9 848.5 91.6C848.4 85.4 849.7 79.8 852.2 75ZM894.8 82.1C893.3 79.4 891.3 77.3 888.8 75.9C886.3 74.5 883.6 73.7 880.7 73.7C877.8 73.7 875.1 74.4 872.7 75.8C870.2 77.2 868.3 79.3 866.7 82C865.2 84.7 864.4 87.9 864.4 91.6C864.4 95.3 865.2 98.6 866.7 101.4C868.2 104.2 870.2 106.3 872.7 107.8C875.2 109.3 877.8 110 880.7 110C883.6 110 886.3 109.3 888.8 107.8C891.3 106.4 893.3 104.3 894.8 101.6C896.3 98.9 897 95.6 897 91.8C897 88 896.3 84.8 894.8 82.1Z" fill="#1769FF"/>
<path d="M946.1 73.8V103.7C946.1 105.8 946.6 107.3 947.6 108.2C948.6 109.1 950.3 109.6 952.7 109.6H959.9V122.7H950.1C937 122.7 930.4 116.3 930.4 103.5V73.8H923V61H930.4V45.7H946.1V61H959.9V73.8H946.1Z" fill="#1769FF"/>
<path d="M1028 96.5H982.9C983.3 101 984.8 104.5 987.6 107C990.3 109.5 993.7 110.8 997.7 110.8C1003.5 110.8 1007.6 108.3 1010.1 103.3H1026.9C1025.1 109.2 1021.7 114.1 1016.6 118C1011.5 121.8 1005.3 123.7 998 123.7C992.1 123.7 986.7 122.4 982 119.7C977.3 117.1 973.6 113.3 971 108.5C968.4 103.7 967 98.1 967 91.8C967 85.4 968.3 79.8 970.9 75C973.5 70.2 977.1 66.5 981.8 63.9C986.5 61.3 991.9 60 998 60C1003.9 60 1009.1 61.3 1013.8 63.8C1018.4 66.3 1022 69.9 1024.6 74.6C1027.2 79.3 1028.4 84.6 1028.4 90.6C1028.4 92.7 1028.3 94.7 1028 96.5ZM1012.3 86C1012.2 82 1010.8 78.8 1008 76.4C1005.2 74 1001.7 72.8 997.6 72.8C993.7 72.8 990.5 74 987.8 76.3C985.2 78.6 983.5 81.9 983 86.1H1012.3V86Z" fill="#1769FF"/>
<path d="M1063.1 62.8C1066.3 60.9 1070 60 1074.2 60V76.4H1070.1C1065.2 76.4 1061.5 77.6 1059 79.9C1056.5 82.2 1055.3 86.2 1055.3 91.9V122.7H1039.7V61H1055.3V70.6C1057.3 67.3 1059.9 64.7 1063.1 62.8Z" fill="#1769FF"/>
<path d="M59.5 94.5C55.7 87.9 54 81.3 54.3 74.3C54.6 67.1 57.6 57.2 62 53.9C62.8 53.3 63.7 52.8 65.2 52.8C65.9 52.8 66.6 52.9 67.5 53.2C69.7 53.8 70.9 55 71.7 57.3C73.9 64.3 70.2 80.1 62.1 94.5C61.4 95.5 60 95.5 59.5 94.5ZM70.1 15.5C73.4 15.5 76.1 18.3 76.1 21.7C76.1 25.1 73.4 27.9 70.1 27.9C66.8 27.9 64.2 25.1 64.2 21.7C64.2 18.3 66.8 15.5 70.1 15.5ZM93.2 144.5H91.1C90.4 144.5 89.8 144 89.7 143.2C88.4 133.7 83.5 122.1 72.3 110.2C71.6 109.4 71.4 108.3 72 107.4C81.8 91.7 90.9 68.2 86 52.5C84.7 48.5 82.6 45.2 79.8 42.7C79.2 42.2 79.3 41.3 80 40.9C87 37 91.7 29.1 91.1 20.2C90.2 9.40002 81.8 0.800015 71.5 1.45547e-05C59.3 -0.799985 49.1 9.20002 49.1 21.7C49.1 28.1 51.8 33.8 56.1 37.8C56.6 38.3 56.5 39.2 55.9 39.6C55 40.1 54 40.7 53.1 41.4C42.8 49.2 39.6 65.4 39.3 73.8C39.2 77.5 39.4 81.2 40.1 84.8C41.4 92 44.2 99 48.7 105.8C50.1 107.9 51.6 109.8 53.2 111.7L61.5 121.1C69.9 130.8 74.5 140.4 75.1 149.2C75.1 149.5 75.2 149.8 75.2 150.2C75.4 155.7 79.8 160.1 85.2 160.1H93.5C97.7 160.1 101.1 156.5 101 152.2C100.8 147.8 97.3 144.5 93.2 144.5Z" fill="#1769FF"/>
<path d="M42.8 117.9C42.6 117.6 42.1 117.5 41.8 117.7C29.6 125.6 20.5 121 16.6 119.7C11.7 118.1 6.4 120.5 4.3 125.4L0.499998 134.5C-1.1 138.4 0.599998 143 4.4 144.7C8.2 146.4 12.6 144.6 14.3 140.7L15.9 136.8C16.2 136.1 16.8 135.8 17.5 135.9C25.5 137.5 37.2 139.6 51.1 129.9C51.5 129.6 51.5 129.1 51.2 128.8C49.9 127.3 48.6 125.7 47.3 124.1C45.9 122.1 44.3 120 42.8 117.9Z" fill="#1769FF"/>
<path d="M149.9 60.9V122.7H134.7V60.9H149.9ZM135.8 50.9C134 49.2 133.1 47 133.1 44.4C133.1 41.8 134 39.6 135.8 37.9C137.6 36.2 139.8 35.3 142.5 35.3C145.2 35.3 147.4 36.2 149.2 37.9C151 39.6 151.9 41.8 151.9 44.4C151.9 47 151 49.2 149.2 50.9C147.4 52.6 145.2 53.5 142.5 53.5C139.8 53.5 137.6 52.6 135.8 50.9Z" fill="#1769FF"/>
<path d="M215.6 67C220 71.6 222.2 78.1 222.2 86.5V122.8H207V88.6C207 83.7 205.8 79.9 203.4 77.3C201 74.7 197.8 73.3 193.6 73.3C189.4 73.3 186.1 74.6 183.7 77.3C181.3 80 180.1 83.7 180.1 88.6V122.8H164.9V60.9H180.1V68.6C182.1 65.9 184.7 63.8 187.9 62.3C191 60.8 194.5 60 198.3 60C205.4 60 211.2 62.3 215.6 67Z" fill="#1769FF"/>
<path d="M254.3 73.7V103.6C254.3 105.7 254.8 107.2 255.8 108.1C256.8 109 258.4 109.5 260.7 109.5H267.8V122.7H258.2C245.4 122.7 239 116.3 239 103.5V73.7H231.8V60.8H239V45.5H254.3V60.8H267.8V73.6L254.3 73.7Z" fill="#1769FF"/>
<path d="M318.9 86C318.8 82 317.4 78.8 314.7 76.3C311.9 73.9 308.6 72.7 304.6 72.7C300.8 72.7 297.7 73.9 295.1 76.2C292.5 78.5 291 81.8 290.4 86H318.9ZM334.2 96.5H290.2C290.6 101 292.1 104.5 294.8 107C297.5 109.5 300.8 110.8 304.7 110.8C310.3 110.8 314.4 108.3 316.7 103.3H333.1C331.4 109.3 328 114.1 323.1 118C318.2 121.8 312.1 123.7 305 123.7C299.2 123.7 294 122.4 289.4 119.7C284.8 117.1 281.2 113.3 278.7 108.5C276.1 103.7 274.8 98.1 274.8 91.8C274.8 85.5 276.1 79.8 278.6 74.9C281.1 70 284.7 66.3 289.2 63.7C293.8 61.1 299 59.8 304.9 59.8C310.8 59.8 315.7 61.1 320.3 63.6C324.8 66.1 328.3 69.7 330.8 74.4C333.3 79 334.5 84.4 334.5 90.4C334.6 92.7 334.5 94.7 334.2 96.5Z" fill="#1769FF"/>
<path d="M368.6 62.8C371.7 60.9 375.3 60 379.4 60V76.4H375.4C370.6 76.4 367 77.6 364.6 79.9C362.2 82.2 361 86.2 361 92V122.8H345.8V60.9H361V70.5C362.9 67.2 365.4 64.7 368.6 62.8Z" fill="#1769FF"/>
<path d="M434.4 81.9C432.9 79.2 431 77.1 428.5 75.7C426.1 74.3 423.5 73.6 420.6 73.6C417.7 73.6 415.3 74.3 412.8 75.8C410.4 77.3 408.4 79.4 406.9 82.1C405.4 84.9 404.7 88.1 404.7 91.8C404.7 95.5 405.4 98.8 406.9 101.5C408.4 104.2 410.3 106.4 412.8 107.8C415.2 109.3 417.8 110 420.6 110C423.4 110 426 109.3 428.5 107.8C430.9 106.3 432.9 104.2 434.4 101.4C435.9 98.7 436.6 95.4 436.6 91.6C436.6 87.8 435.9 84.6 434.4 81.9ZM412.9 62.7C416.3 60.8 420.3 59.9 424.7 59.9C429.8 59.9 434.5 61.2 438.7 63.8C442.9 66.4 446.2 70.1 448.6 74.9C451 79.7 452.2 85.3 452.2 91.6C452.2 97.9 451 103.5 448.6 108.4C446.2 113.3 442.9 117 438.7 119.7C434.5 122.4 429.9 123.7 424.7 123.7C420.3 123.7 416.4 122.8 413 120.9C409.6 119 406.9 116.7 404.8 113.9V152.2H389.6V60.9H404.8V69.8C406.7 67 409.4 64.6 412.9 62.7Z" fill="#1769FF"/>
<path d="M504.4 82C503 79.3 501 77.2 498.5 75.7C496 74.2 493.4 73.5 490.6 73.5C487.8 73.5 485.2 74.2 482.8 75.6C480.4 77 478.5 79.1 477 81.8C475.5 84.5 474.8 87.7 474.8 91.5C474.8 95.2 475.5 98.5 477 101.3C478.5 104.1 480.4 106.2 482.9 107.7C485.3 109.2 487.9 109.9 490.7 109.9C493.5 109.9 496.2 109.2 498.6 107.7C501.1 106.2 503 104.2 504.5 101.4C505.9 98.7 506.7 95.4 506.7 91.6C506.6 88 505.9 84.7 504.4 82ZM462.9 74.9C465.3 70.1 468.6 66.3 472.8 63.7C477 61.1 481.6 59.8 486.8 59.8C491.3 59.8 495.2 60.7 498.6 62.6C502 64.5 504.7 66.8 506.7 69.6V60.8H522V122.6H506.7V113.6C504.7 116.5 502 118.9 498.6 120.8C495.2 122.7 491.2 123.6 486.7 123.6C481.6 123.6 477 122.3 472.9 119.6C468.7 116.9 465.4 113.1 463 108.3C460.6 103.4 459.4 97.8 459.4 91.5C459.3 85.2 460.5 79.7 462.9 74.9Z" fill="#1769FF"/>
<path d="M558.3 62.8C561.4 60.9 565 60 569.1 60V76.4H565.1C560.3 76.4 556.7 77.6 554.3 79.9C551.9 82.2 550.7 86.2 550.7 92V122.8H535.5V60.9H550.7V70.5C552.6 67.2 555.1 64.7 558.3 62.8Z" fill="#1769FF"/>
<path d="M616.2 122.7L595.8 96.4V122.7H580.6V40.1H595.8V87.1L616 60.9H635.8L609.3 91.9L636 122.7H616.2Z" fill="#1769FF"/>
</g>
<defs>
<clipPath id="clip0_682_22640">
<rect width="1074.2" height="160" fill="white"/>
</clipPath>
</defs>
</svg>
